<mxfile host="app.diagrams.net" modified="2020-11-21T10:35:01.067Z" agent="5.0 (Macintosh; Intel Mac OS X 10_15_6) AppleWebKit/605.1.15 (KHTML, like Gecko) Version/14.0.1 Safari/605.1.15" etag="Ff2VN6TDJEY7Xj8whRdy" version="13.10.0" type="github">
  <diagram id="eFqXku6RNr3TkvPt5uMo" name="Page-1">
    <mxGraphModel dx="1869" dy="705" grid="1" gridSize="10" guides="1" tooltips="1" connect="1" arrows="1" fold="1" page="1" pageScale="1" pageWidth="827" pageHeight="1169" math="0" shadow="0">
      <root>
        <mxCell id="0" />
        <mxCell id="1" parent="0" />
        <mxCell id="ybPyFuyrpkmJQQohFyMu-5" value="WebScrapping Script" style="ellipse;whiteSpace=wrap;html=1;" parent="1" vertex="1">
          <mxGeometry x="-10" y="220" width="240" height="50" as="geometry" />
        </mxCell>
        <mxCell id="ybPyFuyrpkmJQQohFyMu-7" value="" style="endArrow=classic;html=1;exitX=0.5;exitY=1;exitDx=0;exitDy=0;" parent="1" edge="1">
          <mxGeometry width="50" height="50" relative="1" as="geometry">
            <mxPoint x="109.5" y="270" as="sourcePoint" />
            <mxPoint x="109.5" y="350" as="targetPoint" />
          </mxGeometry>
        </mxCell>
        <mxCell id="ybPyFuyrpkmJQQohFyMu-9" value="&lt;h1&gt;&lt;font color=&quot;#ff3333&quot;&gt;pdf after 2009&lt;/font&gt;&lt;/h1&gt;&lt;div&gt;&lt;h1&gt;&lt;font color=&quot;#00cc00&quot;&gt;pdf before 2009&lt;/font&gt;&lt;/h1&gt;&lt;/div&gt;&lt;div&gt;&lt;br&gt;&lt;/div&gt;" style="text;html=1;fillColor=none;spacing=5;spacingTop=-20;whiteSpace=wrap;overflow=hidden;rounded=0;strokeColor=#000000;strokeWidth=5;" parent="1" vertex="1">
          <mxGeometry x="720" y="30" width="230" height="190" as="geometry" />
        </mxCell>
        <mxCell id="ybPyFuyrpkmJQQohFyMu-10" value="&lt;b&gt;&lt;font style=&quot;font-size: 16px&quot;&gt;2009-2020.zip&lt;/font&gt;&lt;/b&gt;" style="rounded=0;whiteSpace=wrap;html=1;fillColor=#FF0505;" parent="1" vertex="1">
          <mxGeometry x="50" y="350" width="120" height="60" as="geometry" />
        </mxCell>
        <mxCell id="ybPyFuyrpkmJQQohFyMu-13" value="" style="edgeStyle=orthogonalEdgeStyle;rounded=0;orthogonalLoop=1;jettySize=auto;html=1;" parent="1" source="ybPyFuyrpkmJQQohFyMu-11" target="ybPyFuyrpkmJQQohFyMu-5" edge="1">
          <mxGeometry relative="1" as="geometry">
            <Array as="points">
              <mxPoint x="110" y="160" />
              <mxPoint x="110" y="160" />
            </Array>
          </mxGeometry>
        </mxCell>
        <mxCell id="ybPyFuyrpkmJQQohFyMu-11" value="Website Normal&lt;br style=&quot;font-size: 19px;&quot;&gt;(not archive)" style="text;html=1;strokeColor=none;fillColor=none;align=center;verticalAlign=middle;whiteSpace=wrap;rounded=0;fontStyle=1;fontSize=19;" parent="1" vertex="1">
          <mxGeometry x="15" y="60" width="190" height="80" as="geometry" />
        </mxCell>
        <mxCell id="ybPyFuyrpkmJQQohFyMu-12" value="Website archive&lt;br style=&quot;font-size: 19px;&quot;&gt;" style="text;html=1;strokeColor=none;fillColor=none;align=center;verticalAlign=middle;whiteSpace=wrap;rounded=0;fontSize=19;fontStyle=1" parent="1" vertex="1">
          <mxGeometry x="370" y="60" width="190" height="80" as="geometry" />
        </mxCell>
        <mxCell id="ybPyFuyrpkmJQQohFyMu-15" value="" style="edgeStyle=orthogonalEdgeStyle;rounded=0;orthogonalLoop=1;jettySize=auto;html=1;exitX=0.5;exitY=1;exitDx=0;exitDy=0;entryX=0.5;entryY=0;entryDx=0;entryDy=0;" parent="1" source="ybPyFuyrpkmJQQohFyMu-12" target="ybPyFuyrpkmJQQohFyMu-17" edge="1">
          <mxGeometry relative="1" as="geometry">
            <mxPoint x="150" y="150" as="sourcePoint" />
            <mxPoint x="360" y="210" as="targetPoint" />
          </mxGeometry>
        </mxCell>
        <mxCell id="ybPyFuyrpkmJQQohFyMu-17" value="WebScrapping Script" style="ellipse;whiteSpace=wrap;html=1;" parent="1" vertex="1">
          <mxGeometry x="240" y="219" width="240" height="50" as="geometry" />
        </mxCell>
        <mxCell id="ybPyFuyrpkmJQQohFyMu-20" value="Classification script" style="ellipse;whiteSpace=wrap;html=1;" parent="1" vertex="1">
          <mxGeometry x="550" y="270" width="240" height="60" as="geometry" />
        </mxCell>
        <mxCell id="ybPyFuyrpkmJQQohFyMu-21" value="&lt;b&gt;&lt;font style=&quot;font-size: 16px&quot;&gt;old_website_after_2009.zip&lt;/font&gt;&lt;/b&gt;" style="rounded=0;whiteSpace=wrap;html=1;fillColor=#FF0505;" parent="1" vertex="1">
          <mxGeometry x="210" y="350" width="221" height="60" as="geometry" />
        </mxCell>
        <mxCell id="ybPyFuyrpkmJQQohFyMu-22" value="" style="endArrow=classic;html=1;exitX=0;exitY=1;exitDx=0;exitDy=0;entryX=0.25;entryY=0;entryDx=0;entryDy=0;" parent="1" source="ybPyFuyrpkmJQQohFyMu-17" target="ybPyFuyrpkmJQQohFyMu-21" edge="1">
          <mxGeometry width="50" height="50" relative="1" as="geometry">
            <mxPoint x="414" y="310" as="sourcePoint" />
            <mxPoint x="414" y="390" as="targetPoint" />
          </mxGeometry>
        </mxCell>
        <mxCell id="ybPyFuyrpkmJQQohFyMu-24" value="&lt;b&gt;&lt;font style=&quot;font-size: 16px&quot;&gt;1994-2009.zip&lt;/font&gt;&lt;/b&gt;" style="rounded=0;whiteSpace=wrap;html=1;fillColor=#00CC00;" parent="1" vertex="1">
          <mxGeometry x="430" y="440" width="221" height="60" as="geometry" />
        </mxCell>
        <mxCell id="ybPyFuyrpkmJQQohFyMu-25" value="&lt;b&gt;&lt;u&gt;&lt;font style=&quot;font-size: 24px&quot;&gt;Classification method (year)&lt;/font&gt;&lt;/u&gt;&lt;/b&gt;" style="text;html=1;strokeColor=none;fillColor=none;align=center;verticalAlign=middle;whiteSpace=wrap;rounded=0;fontSize=19;" parent="1" vertex="1">
          <mxGeometry x="241" y="20" width="210" height="20" as="geometry" />
        </mxCell>
        <mxCell id="ybPyFuyrpkmJQQohFyMu-26" value="" style="endArrow=classic;html=1;fontSize=19;exitX=1;exitY=0.5;exitDx=0;exitDy=0;entryX=0;entryY=0.5;entryDx=0;entryDy=0;" parent="1" source="ybPyFuyrpkmJQQohFyMu-17" target="ybPyFuyrpkmJQQohFyMu-20" edge="1">
          <mxGeometry width="50" height="50" relative="1" as="geometry">
            <mxPoint x="400" y="360" as="sourcePoint" />
            <mxPoint x="450" y="310" as="targetPoint" />
          </mxGeometry>
        </mxCell>
        <mxCell id="ybPyFuyrpkmJQQohFyMu-27" value="" style="endArrow=classic;html=1;fontSize=19;exitX=1;exitY=1;exitDx=0;exitDy=0;entryX=0.25;entryY=0;entryDx=0;entryDy=0;" parent="1" source="ybPyFuyrpkmJQQohFyMu-17" target="ybPyFuyrpkmJQQohFyMu-24" edge="1">
          <mxGeometry width="50" height="50" relative="1" as="geometry">
            <mxPoint x="400" y="360" as="sourcePoint" />
            <mxPoint x="450" y="310" as="targetPoint" />
          </mxGeometry>
        </mxCell>
        <mxCell id="ybPyFuyrpkmJQQohFyMu-28" value="" style="ellipse;whiteSpace=wrap;html=1;strokeColor=#000000;strokeWidth=1;fontSize=19;fillColor=#FFFFFF;" parent="1" vertex="1">
          <mxGeometry x="740.5" y="135" width="60" height="10" as="geometry" />
        </mxCell>
        <mxCell id="ybPyFuyrpkmJQQohFyMu-30" value="Script" style="text;html=1;strokeColor=none;fillColor=none;align=center;verticalAlign=middle;whiteSpace=wrap;rounded=0;fontSize=19;" parent="1" vertex="1">
          <mxGeometry x="850" y="130" width="40" height="20" as="geometry" />
        </mxCell>
        <mxCell id="ybPyFuyrpkmJQQohFyMu-32" value="&lt;b&gt;&lt;font style=&quot;font-size: 16px&quot;&gt;old_website_after_2009_B.zip&lt;/font&gt;&lt;/b&gt;" style="rounded=0;whiteSpace=wrap;html=1;fillColor=#FF0505;" parent="1" vertex="1">
          <mxGeometry x="680" y="350" width="260" height="60" as="geometry" />
        </mxCell>
        <mxCell id="ybPyFuyrpkmJQQohFyMu-33" value="" style="endArrow=classic;html=1;fontSize=19;exitX=0;exitY=1;exitDx=0;exitDy=0;entryX=0.5;entryY=0;entryDx=0;entryDy=0;" parent="1" edge="1">
          <mxGeometry width="50" height="50" relative="1" as="geometry">
            <mxPoint x="585.1471862576141" y="321.21320343559637" as="sourcePoint" />
            <mxPoint x="540.5" y="440" as="targetPoint" />
          </mxGeometry>
        </mxCell>
        <mxCell id="ybPyFuyrpkmJQQohFyMu-34" value="" style="endArrow=classic;html=1;fontSize=19;exitX=1;exitY=0.5;exitDx=0;exitDy=0;entryX=0.5;entryY=0;entryDx=0;entryDy=0;" parent="1" source="ybPyFuyrpkmJQQohFyMu-20" target="ybPyFuyrpkmJQQohFyMu-32" edge="1">
          <mxGeometry width="50" height="50" relative="1" as="geometry">
            <mxPoint x="595.1471862576141" y="331.21320343559637" as="sourcePoint" />
            <mxPoint x="550.5" y="450" as="targetPoint" />
          </mxGeometry>
        </mxCell>
        <mxCell id="ybPyFuyrpkmJQQohFyMu-36" value="" style="rounded=0;whiteSpace=wrap;html=1;strokeColor=#000000;strokeWidth=1;fontSize=19;fillColor=#FFFFFF;" parent="1" vertex="1">
          <mxGeometry x="740" y="180" width="60" height="15" as="geometry" />
        </mxCell>
        <mxCell id="ybPyFuyrpkmJQQohFyMu-37" value="zip with pdf&#39;s" style="text;html=1;strokeColor=none;fillColor=none;align=center;verticalAlign=middle;whiteSpace=wrap;rounded=0;fontSize=19;" parent="1" vertex="1">
          <mxGeometry x="827" y="180" width="93" height="20" as="geometry" />
        </mxCell>
        <mxCell id="FIHH0XTKlNl-ZG9PJQxR-1" value="" style="endArrow=classic;html=1;fontSize=19;exitX=0.5;exitY=1;exitDx=0;exitDy=0;" edge="1" parent="1" source="ybPyFuyrpkmJQQohFyMu-10" target="FIHH0XTKlNl-ZG9PJQxR-2">
          <mxGeometry width="50" height="50" relative="1" as="geometry">
            <mxPoint x="450" y="350" as="sourcePoint" />
            <mxPoint x="110" y="460" as="targetPoint" />
          </mxGeometry>
        </mxCell>
        <mxCell id="FIHH0XTKlNl-ZG9PJQxR-2" value="179 pdf&#39;s" style="text;html=1;strokeColor=none;fillColor=none;align=center;verticalAlign=middle;whiteSpace=wrap;rounded=0;fontSize=19;" vertex="1" parent="1">
          <mxGeometry x="70" y="565" width="80" height="20" as="geometry" />
        </mxCell>
        <mxCell id="FIHH0XTKlNl-ZG9PJQxR-3" value="" style="endArrow=classic;html=1;fontSize=19;exitX=0.25;exitY=1;exitDx=0;exitDy=0;entryX=0.5;entryY=0;entryDx=0;entryDy=0;" edge="1" parent="1" source="ybPyFuyrpkmJQQohFyMu-21" target="FIHH0XTKlNl-ZG9PJQxR-4">
          <mxGeometry width="50" height="50" relative="1" as="geometry">
            <mxPoint x="450" y="350" as="sourcePoint" />
            <mxPoint x="265" y="460" as="targetPoint" />
          </mxGeometry>
        </mxCell>
        <mxCell id="FIHH0XTKlNl-ZG9PJQxR-4" value="21pdf&#39;s" style="text;html=1;strokeColor=none;fillColor=none;align=center;verticalAlign=middle;whiteSpace=wrap;rounded=0;fontSize=19;" vertex="1" parent="1">
          <mxGeometry x="230" y="565" width="69" height="20" as="geometry" />
        </mxCell>
        <mxCell id="FIHH0XTKlNl-ZG9PJQxR-5" value="" style="endArrow=classic;html=1;fontSize=19;exitX=0.5;exitY=1;exitDx=0;exitDy=0;" edge="1" parent="1" source="ybPyFuyrpkmJQQohFyMu-24">
          <mxGeometry width="50" height="50" relative="1" as="geometry">
            <mxPoint x="450" y="350" as="sourcePoint" />
            <mxPoint x="541" y="560" as="targetPoint" />
          </mxGeometry>
        </mxCell>
        <mxCell id="FIHH0XTKlNl-ZG9PJQxR-6" value="63 pdf&#39;s" style="text;html=1;strokeColor=none;fillColor=none;align=center;verticalAlign=middle;whiteSpace=wrap;rounded=0;fontSize=19;" vertex="1" parent="1">
          <mxGeometry x="506" y="565" width="69" height="20" as="geometry" />
        </mxCell>
        <mxCell id="FIHH0XTKlNl-ZG9PJQxR-7" value="29 pdf&#39;s" style="text;html=1;strokeColor=none;fillColor=none;align=center;verticalAlign=middle;whiteSpace=wrap;rounded=0;fontSize=19;" vertex="1" parent="1">
          <mxGeometry x="800" y="565" width="69" height="20" as="geometry" />
        </mxCell>
        <mxCell id="FIHH0XTKlNl-ZG9PJQxR-8" value="" style="endArrow=classic;html=1;fontSize=19;exitX=0.5;exitY=1;exitDx=0;exitDy=0;" edge="1" parent="1">
          <mxGeometry width="50" height="50" relative="1" as="geometry">
            <mxPoint x="826" y="410" as="sourcePoint" />
            <mxPoint x="827" y="560" as="targetPoint" />
          </mxGeometry>
        </mxCell>
        <mxCell id="FIHH0XTKlNl-ZG9PJQxR-9" value="Total:&lt;br style=&quot;font-size: 28px;&quot;&gt;292pdf&#39;s" style="text;html=1;strokeColor=none;fillColor=none;align=center;verticalAlign=middle;whiteSpace=wrap;rounded=0;fontSize=28;fontStyle=5" vertex="1" parent="1">
          <mxGeometry x="380" y="630" width="160" height="80" as="geometry" />
        </mxCell>
      </root>
    </mxGraphModel>
  </diagram>
</mxfile>
